REM MD5 a7e3b8eba2b7a20934d9df83f5dd2ad5
FILE "Carnage Heart (Japan).bin" BINARY
  TRACK 01 MODE2/2352
    INDEX 01 00:00:00
  TRACK 02 AUDIO
    INDEX 00 06:28:34
    INDEX 01 06:30:34
  TRACK 03 AUDIO
    INDEX 00 08:45:48
    INDEX 01 08:47:48
REM LEADOUT 13:18:01
